<?xml version="1.0" encoding="utf-8"?>
<!-- Generator: Adobe Illustrator 28.0.0, SVG Export Plug-In . SVG Version: 6.00 Build 0)  -->
<svg version="1.1" xmlns="http://www.w3.org/2000/svg" xmlns:xlink="http://www.w3.org/1999/xlink" x="0px" y="0px"
	 viewBox="0 0 240.76 279.12" style="enable-background:new 0 0 240.76 279.12;" xml:space="preserve">
<style type="text/css">
	.Arched_x0020_Green{fill:url(#SVGID_1_);stroke:#FFFFFF;stroke-width:0.25;stroke-miterlimit:1;}
	.st0{clip-path:url(#SVGID_00000037686409750839805850000016219141258718941089_);}
	.st1{fill:#F1F1F2;}
	.st2{fill:#D0D2D3;}
	.st3{fill:#BBBDBF;}
	.st4{fill:#6D6E70;}
	.st5{display:none;fill:#26A9E0;}
	.st6{fill:#1B75BB;}
	.st7{fill:#FAAF40;}
	.st8{fill:#26A9E0;}
	.st9{fill:#F9EC31;}
	.st10{fill:#A6A8AB;}
	.st11{fill:#929497;}
	.st12{fill:#808184;}
	.st13{fill:none;stroke:#231F20;}
	.st14{fill:none;stroke:#231F20;stroke-linecap:round;stroke-linejoin:round;}
	.st15{fill-rule:evenodd;clip-rule:evenodd;}
	.st16{fill:#2B388F;}
	.st17{fill:#231F20;}
</style>
<linearGradient id="SVGID_1_" gradientUnits="userSpaceOnUse" x1="-2421.9932" y1="516.709" x2="-2421.2859" y2="516.0019">
	<stop  offset="0" style="stop-color:#1EAB4B"/>
	<stop  offset="0.9831" style="stop-color:#19361A"/>
</linearGradient>
<g id="Layer_6">
	<defs>
		<polygon id="SVGID_00000035529551179380612310000006888015811661666479_" points="240.76,208.54 240.76,69.52 231.18,63.98 
			140.3,11.42 120.57,0.03 100.84,11.43 9.95,63.99 0.37,69.52 0.37,208.5 9.95,214.04 101.98,267.24 120.6,277.99 139.21,267.24 
			231.24,214.04 		"/>
	</defs>
	<clipPath id="SVGID_00000093871997058083983490000014324563210433206427_">
		<use xlink:href="#SVGID_00000035529551179380612310000006888015811661666479_"  style="overflow:visible;"/>
	</clipPath>
	<g id="Layer_4" style="clip-path:url(#SVGID_00000093871997058083983490000014324563210433206427_);">
		<rect x="-12.04" y="-14.51" class="st1" width="280.66" height="312.65"/>
		<g>
			<path class="st2" d="M103.92,101.11c8.64-5.49,17.13-11.21,25.45-17.18c4.77,3.57,9.95,6.6,15.4,9.02
				c12.72,5.65,26.94,8,38.7,15.45c2,1.27,3.91,2.67,5.98,3.82c1.91,1.06,3.95,1.89,5.97,2.72c8.37,3.42,16.74,6.84,25.11,10.27
				c-8.45,2.41-17.43,1.8-26.2,1.17c-21.56-1.54-43.12-3.09-64.68-4.63c-4.41-0.32-8.83-0.63-13.25-0.68
				c-11.99-0.13-24.09,1.72-35.93-0.22"/>
			<path class="st2" d="M87.67,96.29c2.67-2.34,5.34-4.68,8.01-7.03c0.42-0.37,0.86-0.74,1.4-0.87c0.81-0.19,1.62,0.21,2.35,0.61
				c13.3,7.33,24.72,18.41,39.25,22.82c2.74,0.83,5.57,1.42,8.21,2.51c4.78,1.98,8.78,5.56,13.58,7.49c1.58,0.63,3.26,1.1,4.63,2.1
				c1.37,1.01,2.39,2.75,1.92,4.39c-19.17-0.25-38.36,0.28-57.49,1.58c-4.65,0.32-9.3,0.68-13.9,1.43
				c-6.06,0.99-12.02,2.66-18.12,3.37c-15.26,1.77-31.34-2.43-45.77,2.86"/>
			<path class="st3" d="M57.27,86.34c3.61-1.14,7.04-2.87,10.11-5.1c1.98-1.44,3.93-3.15,6.34-3.6c2.41-0.45,5.4,1.07,5.39,3.53
				c0.92-0.57,2.14-0.02,2.95,0.7c0.82,0.71,1.55,1.63,2.59,1.9c1.05,0.28,2.43-0.64,2.05-1.66c5.09,5.74,10.78,10.94,16.94,15.49
				c2.25,1.66,4.56,3.23,6.87,4.81c1.57,1.07,3.14,2.14,4.72,3.21c3.38,2.3,6.76,4.6,10.14,6.9c1.42,0.97,2.84,1.93,4.26,2.9
				c5.46,3.72,10.99,7.47,17.14,9.88c-12.39,2.08-24.98,2.94-37.54,2.57c-4.31-0.13-8.64-0.39-12.91,0.17
				c-3.18,0.42-6.28,1.3-9.46,1.77c-11.35,1.68-22.94-1.95-34.34-0.65c-6.97,0.8-13.61,3.42-20.54,4.49
				c-9.76,1.51-19.73-0.09-29.37-2.25"/>
			<path class="st4" d="M154.66,126.75h-49.32c-9.74,2.13-19.3,5.38-28.84,8.27c-7.25,2.19-14.58,4.68-20.59,9.28
				c-3.14,2.4-5.85,5.32-8.97,7.74c-16.3,12.62-39.9,9.17-58.78,17.45c-0.83,0.36-1.7,0.8-2.13,1.59c-1.1,2.02,1.38,4.09,3.49,5.01
				c13.23,5.72,27.74,7.72,42.09,9.15c28.35,2.82,57.24,3.58,85.1-2.4c1.52-0.33,3.11-0.71,4.29-1.72c1.23-1.06,1.84-2.68,2.11-4.28
				c1.1-6.6-3.09-13.08-8.39-17.16c-5.3-4.08-11.7-6.44-17.52-9.73c-2.67-1.51-5.49-4.99-3.32-7.15c0.57-0.56,1.35-0.83,2.11-1.07
				c11.22-3.62,22.92-5.73,34.7-6.28c-4.14,1.4-8.29,2.79-12.43,4.19c-2.12,0.71-4.61,1.9-4.73,4.13c-0.11,2.11,2.05,3.59,4.02,4.34
				c6.89,2.65,14.58,2.1,21.76,3.83c5.25,1.26,10.13,3.72,14.96,6.15c9.2,4.64,18.41,9.28,27.61,13.92
				c3.65,1.84,7.3,3.68,10.81,5.77c4.71,2.81,9.14,6.05,13.75,9c18.84,12.03,40.87,19.03,63.2,20.09
				c-7.96-24.42-3.31-51.24-8.66-76.36c-0.23-1.06-0.52-2.2-1.38-2.85c-0.81-0.62-1.9-0.64-2.92-0.64
				C222.4,127.01,188.92,126.75,154.66,126.75z"/>
			<path class="st5" d="M231.18,197.32c-7.35-32.65-107.27-45.02-105.22-55.05c0.93-4.56,21.86-3.53,23.48-11.35
				c0.65-3.15-2.42-6.9-5.74-9.8h-9c2.93,1.1,8.64,3.54,8.52,5.39c-0.45,7.36-62.33,4.46-64.57,16.43
				c-1.77,9.51,36.25,19.9,34.43,27.78c-2.46,10.68-42.24,12.77-119.35,6.26l10.02,8.82v21.05l58.51,30.44l60.55,53.28
				C220.21,239.26,234.55,212.29,231.18,197.32z"/>
			<g id="XMLID_00000008115648559535415260000004553562601516296071_">
				<g>
					<path class="st6" d="M231.18,197.32c2.3,10.24-3.67,26.09-38.81,51.5c-12.35-2.04-25.84-5.2-39.93-9.99
						c45.47-16.8,57.6-29.52,57-39.03c-0.28-4.49-3.44-8.64-8.46-12.51c8.06-0.39,15.67-1.11,22.76-2.02
						C227.56,188.95,230.2,192.96,231.18,197.32z"/>
					<path class="st7" d="M209.44,199.8c0.6,9.51-11.53,22.23-57,39.03c-6.04-2.06-12.2-4.42-18.42-7.13
						c46.97-14.35,60.3-25.95,60.03-35.03c-0.09-3.16-1.83-6.16-4.77-9.03c4-0.04,7.9-0.16,11.7-0.35
						C206,191.16,209.16,195.31,209.44,199.8z"/>
					<path class="st8" d="M223.74,185.27c-7.09,0.91-14.7,1.63-22.76,2.02c-10.95-8.43-30.8-15.5-49.29-21.74
						c0.65-0.04,1.31-0.09,1.96-0.15h33.18C201.57,170.81,215.45,177.29,223.74,185.27z"/>
					<path class="st6" d="M194.05,196.67c0.27,9.08-13.06,20.68-60.03,35.03c-10.74-4.66-21.67-10.36-32.58-17.29
						c-5.65-3.6-10.95-7.3-15.91-11.07c32.74-4.8,52.49-11.05,59.23-18.75c7.19,1.06,14.76,1.89,22.68,2.42
						c7.56,0.51,14.85,0.69,21.84,0.63C192.22,190.51,193.96,193.51,194.05,196.67z"/>
					<path class="st9" d="M200.98,187.29c-3.8,0.19-7.7,0.31-11.7,0.35c-8.36-8.2-26.42-15.32-43.71-21.73
						c2.07-0.1,4.11-0.22,6.12-0.36C170.18,171.79,190.03,178.86,200.98,187.29z"/>
					<path class="st8" d="M189.28,187.64c-6.99,0.06-14.28-0.12-21.84-0.63c-7.92-0.53-15.49-1.36-22.68-2.42
						c1.53-1.73,2.39-3.53,2.6-5.4c0.5-4.5-5.6-8.8-13.67-12.96c1.92,0,3.87-0.04,5.84-0.09c2.04-0.06,4.05-0.13,6.04-0.23
						C162.86,172.32,180.92,179.44,189.28,187.64z"/>
					<path class="st6" d="M186.83,165.4h-33.18c8.81-0.66,17.09-1.7,24.76-2.96C181.23,163.38,184.05,164.37,186.83,165.4z"/>
					<path class="st6" d="M148.5,153.07c8.83,2.74,19.36,5.8,29.91,9.37c-7.67,1.26-15.95,2.3-24.76,2.96h-2.4
						c-10.18-3.43-19.93-6.62-27.51-9.65C132.48,155.15,140.75,154.22,148.5,153.07z"/>
					<path class="st8" d="M152.44,238.83c14.09,4.79,27.58,7.95,39.93,9.99c-16.25,11.75-38.74,25.54-69.53,41.76L87.18,259.2
						C114.2,251.83,135.6,245.05,152.44,238.83z"/>
					<path class="st6" d="M153.65,165.4c-0.65,0.06-1.31,0.11-1.96,0.15c-0.14-0.05-0.29-0.1-0.44-0.15H153.65z"/>
					<path class="st9" d="M151.25,165.4c0.15,0.05,0.3,0.1,0.44,0.15c-2.01,0.14-4.05,0.26-6.12,0.36
						c-0.45-0.17-0.91-0.34-1.36-0.51H151.25z"/>
					<path class="st7" d="M151.25,165.4h-7.04c-8.92-3.3-17.56-6.42-24.47-9.4c1.34-0.07,2.68-0.15,4-0.25
						C131.32,158.78,141.07,161.97,151.25,165.4z"/>
					<path class="st6" d="M143.71,121.12c3.32,2.91,6.39,6.66,5.73,9.81c-0.14,0.68-0.43,1.3-0.84,1.86
						c-17.68,0.19-35.2,1.14-45.95,3.85c-2.11-0.54-4.12-1.11-6.02-1.7c19.02-3.18,46.3-3.55,46.6-8.43
						c0.11-1.85-5.6-4.29-8.52-5.39H143.71z"/>
					<path class="st7" d="M148.6,132.79c-0.36,0.49-0.81,0.93-1.34,1.34c-14.26,0.34-29.43,1.31-39.1,3.79
						c-1.91-0.4-3.75-0.83-5.51-1.28C113.4,133.93,130.92,132.98,148.6,132.79z"/>
					<path class="st9" d="M133.69,166.23c8.07,4.16,14.17,8.46,13.67,12.96c-0.21,1.87-1.07,3.67-2.6,5.4
						c-5.87-0.86-11.49-1.87-16.85-2.99c2.85-2,4.47-4.2,4.84-6.59c0.46-2.95-2.47-5.9-6.96-8.82
						C128.37,166.24,131.01,166.26,133.69,166.23z"/>
					<path class="st6" d="M147.26,134.13c-0.65,0.5-1.41,0.94-2.25,1.33c-11.33,0.4-23.55,1.31-31.5,3.45
						c-0.8-0.13-1.6-0.27-2.41-0.42c-1-0.18-1.98-0.37-2.94-0.57C117.83,135.44,133,134.47,147.26,134.13z"/>
					<path class="st8" d="M144.21,165.4c0.45,0.17,0.91,0.34,1.36,0.51c-1.99,0.1-4,0.17-6.04,0.23c-1.97,0.05-3.92,0.09-5.84,0.09
						c-0.54-0.27-1.09-0.55-1.64-0.83H144.21z"/>
					<path class="st6" d="M144.21,165.4h-12.16c-6.23-3.09-13.39-6.11-19.53-9.07c0.91-0.03,1.83-0.06,2.75-0.1
						c1.5-0.06,2.99-0.14,4.47-0.23C126.65,158.98,135.29,162.1,144.21,165.4z"/>
					<path class="st7" d="M145.01,135.46c-1.12,0.53-2.39,0.98-3.73,1.38c-8.17,0.43-16.91,1.21-23.27,2.72
						c-1.47-0.18-2.97-0.4-4.5-0.65C121.46,136.77,133.68,135.86,145.01,135.46z"/>
					<path class="st8" d="M148.5,153.07c-7.75,1.15-16.02,2.08-24.76,2.68c-5.83-2.33-10.39-4.56-12.89-6.75
						c7.05-0.53,13.88-1.2,20.47-1.97C135.34,148.88,141.36,150.86,148.5,153.07z"/>
					<path class="st6" d="M141.28,136.84c-4.8,1.42-10.46,2.17-13.38,3.57c-3.08-0.14-6.39-0.41-9.89-0.85
						C124.37,138.05,133.11,137.27,141.28,136.84z"/>
					<path class="st9" d="M134.02,231.7c6.22,2.71,12.38,5.07,18.42,7.13c-16.84,6.22-38.24,13-65.26,20.37l-13.54-11.91
						C98.18,241.77,118.05,236.58,134.02,231.7z"/>
					<path class="st9" d="M133.69,166.23c-2.68,0.03-5.32,0.01-7.9-0.04c-0.39-0.27-0.8-0.53-1.23-0.79h7.49
						C132.6,165.68,133.15,165.96,133.69,166.23z"/>
					<path class="st8" d="M125.79,166.19c4.49,2.92,7.42,5.87,6.96,8.82c-0.37,2.39-1.99,4.59-4.84,6.59
						c-7.66-1.58-14.78-3.39-21.31-5.28c3.82-1.48,5.98-3.34,6.5-5.59c0.38-1.67-1.03-3.46-3.48-5.33c0.01,0,0.03,0,0.04,0
						C114.79,165.8,120.17,166.07,125.79,166.19z"/>
					<path class="st7" d="M132.05,165.4h-7.49c-4.86-3-11.17-5.98-16.94-8.94c1.61-0.02,3.25-0.07,4.9-0.13
						C118.66,159.29,125.82,162.31,132.05,165.4z"/>
					<path class="st7" d="M127.91,181.6c5.36,1.12,10.98,2.13,16.85,2.99c-6.74,7.7-26.49,13.95-59.23,18.75
						c-4.09-3.09-7.95-6.22-11.59-9.36C101.85,191.41,119.84,187.28,127.91,181.6z"/>
					<path class="st6" d="M106.6,176.32c6.53,1.89,13.65,3.7,21.31,5.28c-8.07,5.68-26.06,9.81-53.97,12.38
						c-5.19-4.46-9.94-8.94-14.26-13.32C82.83,180.94,98.47,179.49,106.6,176.32z"/>
					<path class="st6" d="M126.37,143.76c0.75,1.05,2.47,2.13,4.95,3.27c-6.59,0.77-13.42,1.44-20.47,1.97
						c-1.55-1.35-2.31-2.67-2.1-3.99c0.06-0.39,0.2-0.75,0.42-1.11C114.9,143.84,120.64,143.8,126.37,143.76z"/>
					<path class="st8" d="M127.9,140.41c-1.08,0.51-1.78,1.11-1.93,1.87c-0.1,0.49,0.04,0.98,0.4,1.48
						c-5.73,0.04-11.47,0.08-17.2,0.14c1.15-1.88,4.43-3.28,8.84-4.34C121.51,140,124.82,140.27,127.9,140.41z"/>
					<path class="st8" d="M124.56,165.4c0.43,0.26,0.84,0.52,1.23,0.79c-5.62-0.12-11-0.39-16.13-0.79H124.56z"/>
					<path class="st6" d="M124.56,165.4h-14.9c-0.01,0-0.03,0-0.04,0h-0.01c-3.72-2.84-9.81-5.86-15.62-8.96
						c4.4,0.1,8.94,0.12,13.63,0.02C113.39,159.42,119.7,162.4,124.56,165.4z"/>
					<path class="st9" d="M123.74,155.75c-1.32,0.1-2.66,0.18-4,0.25c-5.36-2.32-9.68-4.56-12.27-6.75
						c1.13-0.07,2.26-0.16,3.38-0.25C113.35,151.19,117.91,153.42,123.74,155.75z"/>
					<path class="st8" d="M119.74,156c-1.48,0.09-2.97,0.17-4.47,0.23c-0.92,0.04-1.84,0.07-2.75,0.1
						c-4.68-2.25-8.76-4.47-11.39-6.67c1.15-0.06,2.3-0.14,3.45-0.21c0.97-0.06,1.93-0.13,2.89-0.2
						C110.06,151.44,114.38,153.68,119.74,156z"/>
					<path class="st9" d="M113.51,138.91c1.53,0.25,3.03,0.47,4.5,0.65c-4.41,1.06-7.69,2.46-8.84,4.34
						c-1.4,0.01-2.79,0.02-4.18,0.04C105.75,141.77,108.93,140.14,113.51,138.91z"/>
					<path class="st8" d="M111.1,138.49c0.81,0.15,1.61,0.29,2.41,0.42c-4.58,1.23-7.76,2.86-8.52,5.03
						c-1.27,0.01-2.54,0.02-3.81,0.03c-1.03,0.01-2.05,0.02-3.08,0.03c0.62-2.66,4.4-4.63,10.06-6.08
						C109.12,138.12,110.1,138.31,111.1,138.49z"/>
					<path class="st7" d="M104.99,143.94c1.39-0.02,2.78-0.03,4.18-0.04c-0.22,0.36-0.36,0.72-0.42,1.11
						c-0.21,1.32,0.55,2.64,2.1,3.99c-1.12,0.09-2.25,0.18-3.38,0.25c-1.92-1.61-2.89-3.19-2.63-4.76
						C104.87,144.3,104.92,144.12,104.99,143.94z"/>
					<path class="st9" d="M112.52,156.33c-1.65,0.06-3.29,0.11-4.9,0.13c-4.3-2.2-8.3-4.38-11.17-6.55
						c1.55-0.07,3.11-0.16,4.68-0.25C103.76,151.86,107.84,154.08,112.52,156.33z"/>
					<path class="st6" d="M107.47,149.25c-0.96,0.07-1.92,0.14-2.89,0.2c-1.15,0.07-2.3,0.15-3.45,0.21
						c-2.19-1.83-3.38-3.63-3.08-5.43c0.01-0.08,0.03-0.15,0.05-0.23c1.03-0.01,2.05-0.02,3.08-0.03c1.27-0.01,2.54-0.02,3.81-0.03
						c-0.07,0.18-0.12,0.36-0.15,0.55C104.58,146.06,105.55,147.64,107.47,149.25z"/>
					<path class="st8" d="M107.62,156.46c-4.69,0.1-9.23,0.08-13.63-0.02c-3.76-2-7.39-4.03-10.18-6.06
						c4.13-0.1,8.34-0.26,12.64-0.47C99.32,152.08,103.32,154.26,107.62,156.46z"/>
					<path class="st8" d="M101.44,214.41c10.91,6.93,21.84,12.63,32.58,17.29c-15.97,4.88-35.84,10.07-60.38,15.59l-11.36-9.99
						l-51.45-26.77c29.76-1.85,54.66-4.25,74.7-7.19C90.49,207.11,95.79,210.81,101.44,214.41z"/>
					<path class="st9" d="M102.65,136.64c1.76,0.45,3.6,0.88,5.51,1.28c-5.66,1.45-9.44,3.42-10.06,6.08
						c-2.02,0.02-4.05,0.04-6.08,0.07c-0.03-0.29-0.02-0.59,0.03-0.88C92.55,140.3,96.49,138.18,102.65,136.64z"/>
					<path class="st8" d="M96.63,134.94c1.9,0.59,3.91,1.16,6.02,1.7c-6.16,1.54-10.1,3.66-10.6,6.55
						c-0.05,0.29-0.06,0.59-0.03,0.88c-4.45,0.04-8.9,0.08-13.35,0.13c-0.08-0.42-0.08-0.83,0-1.25
						C79.43,138.91,86.96,136.56,96.63,134.94z"/>
					<path class="st7" d="M98.1,144c-0.02,0.08-0.04,0.15-0.05,0.23c-0.3,1.8,0.89,3.6,3.08,5.43c-1.57,0.09-3.13,0.18-4.68,0.25
						c-2.61-1.96-4.29-3.91-4.43-5.84C94.05,144.04,96.08,144.02,98.1,144z"/>
					<path class="st6" d="M92.02,144.07c0.14,1.93,1.82,3.88,4.43,5.84c-4.3,0.21-8.51,0.37-12.64,0.47
						c-2.85-2.07-4.82-4.14-5.14-6.18C83.12,144.15,87.57,144.11,92.02,144.07z"/>
					<path class="st9" d="M73.94,193.98c3.64,3.14,7.5,6.27,11.59,9.36c-20.04,2.94-44.94,5.34-74.7,7.19l-7.06-3.67v-9.79
						C31.69,196.75,55.08,195.72,73.94,193.98z"/>
					<path class="st8" d="M59.68,180.66c4.32,4.38,9.07,8.86,14.26,13.32c-18.86,1.74-42.25,2.77-70.17,3.09v-11.26l-10.02-8.82
						C20.08,179.21,42.05,180.43,59.68,180.66z"/>
				</g>
			</g>
			<path class="st3" d="M125.55,107.87c4.53-1.07,7.59-5.12,10.93-8.37c4.07-3.96,8.95-6.95,13.82-9.86
				c5.08-3.02,10.2-5.98,15.32-8.93c3.04-1.76,6.08-3.51,9.13-5.27c1.08,2.18,3.42,3.47,5.78,4.06s4.82,0.62,7.22,1.01
				c2.41,0.39,4.74,1.14,7.06,1.89c7.36,2.37,14.77,4.77,21.56,8.46c3.85,2.1,7.48,4.6,11.36,6.63c9.59,5.01,20.41,7.01,30.82,9.95
				c3.85,1.09,7.86,2.44,10.5,5.45c-21,0.54-42,1.59-62.95,3.17c-0.89,0.07-1.8,0.14-2.64,0.45c-1.01,0.37-1.87,1.06-2.81,1.59
				c-3.63,2.05-8.09,1.56-12.26,1.28c-8.8-0.58-17.63,0.08-26.43,0.74c-2.99,0.23,2.59,5.61-0.4,5.84
				c-12.47,0.94-34.04,0.78-48.13,1.04"/>
			<path class="st10" d="M9.17,81.09c4.07-0.67,5.69-4.93,9.47-6.34c0.42-0.15,0.88-0.27,1.32-0.19c0.89,0.16,1.26,1,1.93,1.48
				c1.33,0.94,3.4,0.36,5.18,0.42c3.22,0.11,5.93,2.49,9.13,2.17c1.45-0.15,2.76-0.84,4.22-0.94c4.36-0.29,6.79,4.62,11.14,4.89
				c0.83,0.05,1.69-0.07,2.48,0.12c1.1,0.27,1.82,1.08,2.58,1.77c3.51,3.12,9.51,4.38,11.72,8.2c0.59,1.03,0.86,2.19,1.68,3.1
				c0.72,0.81,1.79,1.36,2.63,2.09c2.73,2.39,3.16,6.77,7.09,7.56c0.67,0.14,1.39,0.14,2.01,0.37c1.93,0.7,1.96,2.98,3.5,4.14
				c0.71,0.53,1.67,0.78,2.58,1.06c4.24,1.3,7.86,3.59,11.42,5.86c5.4,3.43,10.8,6.88,15.65,10.8c0.27,0.22,0.55,0.46,0.57,0.76
				c0.04,0.61-0.88,0.92-1.62,1.05c-1.34,0.24-2.69,0.48-4.03,0.72c-13.84,2.47-28.11,4.94-42,3c-4.43-0.62-8.76-1.69-12.85-3.17
				c-2.31-0.84-4.6-1.82-7.12-2.11c-1.64-0.19-3.31-0.07-4.97,0.03c-11.65,0.69-23.36,0.55-34.94-0.43
				c-0.03-1.07-0.05-2.14-0.08-3.22"/>
			<path class="st10" d="M129.86,139.66c3.13,0.36,15.52-10.81,17.52-13.25c2.76-3.37,5.68-6.71,9.36-9.05
				c3.66-2.33,8.06-3.68,10.91-6.95c1.45-1.67,2.38-3.73,3.6-5.57c5.03-7.62,14.43-11.13,20.54-17.91c1.18-1.3,2.29-2.77,3.89-3.48
				c1.92-0.84,4.12-0.43,6.21-0.49c6.81-0.21,12.27-5.45,17.01-10.35c1.78,2.87,4.08,5.55,7.11,7.03c2.81,1.37,6.01,1.61,9.07,2.2
				c18.01,3.46,31.09,18.61,46.85,27.98c7.89,4.69,16.81,8.15,22.95,14.97c-23.07,7.3-47.53,8.99-71.73,9.34
				c-5.62,0.08-11.36,0.11-16.67,1.93"/>
			<path class="st11" d="M-16.69,171.96c13.34-1,26.69-2,40.06-2.63c4.47-0.21,9-0.39,13.24-1.82c2.59-0.87,5-2.19,7.37-3.53
				c0.69-0.39,1.38-0.79,1.93-1.36c0.66-0.69,1.06-1.59,1.58-2.39c0.85-1.29,2.03-2.33,3.19-3.35c2.85-2.5,5.71-5,8.56-7.51
				c4.46-3.91,8.99-7.87,14.34-10.43c4.1-1.96,8.55-3.04,13-3.99c15.94-3.43,17.82-4.98,34.11-5.58c3.3-0.12,17.35-1.76,26.7-2.95
				c-15.02-0.07-34.47-2-49.49-2.07c-4.33-0.02-8.71-0.05-12.88-1.19c-3.97-1.09-7.63-3.15-11.66-3.98
				c-8.48-1.75-17.66,2.12-25.77-0.91c-4.87-1.82-8.57-5.9-13.24-8.17c-3.31-1.61-6.99-2.26-10.62-2.86
				c-14.09-2.3-28.29-3.9-42.54-4.81"/>
			<path class="st12" d="M1.38,149.05c-0.18-2.91,0.12-5.85,0.79-8.69c0.8-3.38,2.13-6.63,3.93-9.59c0.36-0.59,1.64-0.77,1.35-0.14
				c-1.06-3.12-0.83-6.65,0.63-9.6c1.57,4.65,3.15,9.3,4.72,13.95c0.17,0.51,0.37,1.05,0.8,1.37c0.82,0.61,2.09,0.04,2.56-0.87
				c0.47-0.91,0.39-2,0.29-3.02c0.5,1.27,2.1,1.97,3.37,1.49c1.27-0.49,1.99-2.08,1.52-3.35c0.87,1.29,1.74,2.58,2.61,3.87
				c-0.18-1.08,1.4-1.52,2.45-1.22c1.05,0.29,2.3,0.81,3.12,0.09c0.44-0.39,0.57-1.02,0.67-1.6c0.82-4.74,1.84-4.94,2.66-9.68
				c2.48,5.53,2.61,6.55,3.05,12.19c0.58-1.27,1.98-1.95,2.35-3.3c0.94,0.52,1.95,1.06,3.02,0.97c1.07-0.09,2.12-1.12,1.82-2.15
				c0.31,1,0.83,1.94,1.52,2.74c0.47-1.15,0.94-2.31,1.41-3.46c1.35,0.91,2.7,1.81,4.06,2.72c0.52-1.46,1.05-2.92,1.57-4.37
				c0,1.05,1.23,1.83,2.25,1.56c1.02-0.27,1.7-1.33,1.75-2.38c2.41,1.24,4.29,3.45,5.14,6.02c0.55-0.48,1.1-0.97,1.65-1.45
				c-0.05,0.82,0.46,1.65,1.21,1.98c0.51-2,1.03-4,1.54-5.99c0.5,0.3,1.01,0.6,1.51,0.89c0.55-1.83,1.1-3.66,1.65-5.49
				c1.6,3.98,1.97,11.01,2.77,9.61c2.08-3.64,0.29-5.38,3.05-10.03c1.27,2.98,2.55,5.96,3.82,8.93c0.09-0.74,0.18-1.47,0.28-2.21
				c1.02,1.77,2.96,2.97,5,3.1c0.03-1.6,0.07-3.21,0.1-4.81c1.15,0.4,1.48,1.93,2.51,2.57c0.68,0.43,1.55,0.4,2.35,0.35
				c4.4-0.26,8.8-0.52,13.2-0.78c0.44-0.06,0.88-0.11,1.33-0.17c1.84-0.24,4.16-0.23,4.99,1.42c0.29-0.38,0.58-0.76,0.87-1.14
				c4.83-0.97,9.84-1.02,14.69-0.17c-1.04,0.39-2.18,0.42-3.3,0.47c-12.64,0.54-25.19,3.2-36.96,7.85
				c-2.01,0.79-4.01,1.65-6.12,2.15c-1.54,0.37-3.14,0.54-4.63,1.09c-5.33,1.95-7.85,7.83-11,12.55
				c-5.01,7.49-12.75,12.91-21.17,16.13c-11.43,4.37-24.06,4.86-36.17,3.13c-1.21-6.65-1.69-13.43-1.41-20.18"/>
			<path class="st11" d="M254.62,187.34c-2.86-0.81-4.02-4.27-4.04-7.25c-0.02-2.97,0.62-6.08-0.5-8.83c-0.61-1.51-1.7-2.77-2.78-4
				c-2.3-2.64-4.64-5.31-7.53-7.29c-5.5-3.76-12.45-4.64-19.11-4.7c-6.66-0.06-13.37,0.6-19.94-0.52
				c-8.5-1.44-16.28-5.77-24.75-7.37c-3.4-0.64-6.86-0.83-10.3-1.15c-5.73-0.54-11.44-1.44-16.98-3.01
				c-3.48-0.98-6.92-2.23-10.53-2.52c-3.37-0.28-6.91,0.27-10.04-1.02c0.62-0.99,1.99-1.08,3.16-1.19
				c5.6-0.53,10.44-3.96,15.61-6.17c6.87-2.93,14.63-3.73,21.96-2.25c1.8,0.36,3.6,0.86,5.43,0.81c3.58-0.11,6.74-2.27,10.2-3.21
				c2.64-0.72,5.42-0.7,8.15-0.92c3.84-0.31,7.62-1.09,11.42-1.71c21.3-3.49,43.11-2.1,64.54-4.6"/>
		</g>
		<g>
			<path class="st4" d="M6.19,171.96c0.54-0.9,0.17-2.05-0.09-3.07c-0.37-1.42-0.5-2.89-0.39-4.35c0.02-0.21,0.04-0.42,0.13-0.61
				c0.25-0.49,0.96-0.76,0.94-1.31c-0.01-0.23-0.15-0.42-0.27-0.61c-0.84-1.38-0.63-3.31,0.48-4.47c0.41-0.43,0.92-0.76,1.24-1.25
				c0.26-0.4,0.37-0.87,0.49-1.34c0.37-1.56,0.75-3.13,1.12-4.69c0.44,2.61-0.72,5.51,0.55,7.83c0.48,0.88,1.28,1.57,1.7,2.49
				c0.36,0.77,0.42,1.64,0.48,2.49c0.15,2.11,0.29,4.22,0.44,6.33c0.08,1.2,0.15,2.49-0.48,3.52c0.01-0.38,0.03-0.76,0.04-1.14
				c0.39,0.17,0.38,0.84-0.01,1c1.1-0.6,1.92-1.67,2.22-2.88c0.1-0.41,0.14-0.84,0.3-1.23c0.4-0.99,1.5-1.63,1.69-2.68
				c0.15-0.82-0.31-1.61-0.65-2.36c-0.92-2.01-1.15-4.32-0.63-6.47c0.11-0.46,0.26-0.95,0.13-1.41c-0.08-0.3-0.28-0.56-0.32-0.87
				c-0.06-0.5,0.29-0.95,0.41-1.44c0.12-0.49,0.01-1.02,0.12-1.51c0.08-0.35,0.27-0.66,0.44-0.98c0.85-1.56,1.24-3.37,1.12-5.14
				c-0.02,1.91,0.2,3.82,0.42,5.72c0.2,1.7,0.39,3.41,0.59,5.11c0.03,0.28,0.07,0.57,0.19,0.82c0.15,0.31,0.41,0.55,0.64,0.8
				c1.48,1.65,1.55,4.37,0.17,6.1c-0.22,0.28-0.49,0.56-0.53,0.92c-0.03,0.32,0.13,0.63,0.28,0.91c0.99,1.94,1.31,4.22,0.91,6.36
				c0.48,0.49,1.29-0.08,1.69-0.64c0.6-0.83,1.14-1.71,1.59-2.63c0.17-0.34,0.33-0.69,0.32-1.07c-0.02-0.64-0.51-1.14-0.87-1.66
				c-1.06-1.53-1.03-3.74,0.07-5.24c0.32-0.44,0.73-0.84,0.85-1.37c0.09-0.39,0.01-0.83,0.23-1.16c0.17-0.26,0.47-0.39,0.74-0.55
				c1.58-0.97,1.72-3.16,1.74-5.02c0.02-1.85,0.31-4.07,1.99-4.87c0.31,4.1,0.67,8.33,2.62,11.95c0.67,1.24,1.53,2.45,1.63,3.85
				c0.1,1.44-0.64,2.92-0.22,4.31c0.13,0.45,0.38,0.87,0.38,1.34c0,0.88-0.86,1.52-1.13,2.35c-0.35,1.08,0.18,2.6-0.79,3.17
				c-0.29,0.17-0.65,0.19-0.99,0.21c-8.63,0.36-17.25,0.72-25.88,1.08c-0.09-0.57-0.17-1.14-0.26-1.72"/>
			<path class="st4" d="M184.15,155.41c-2.29-0.87-3.35-3.54-3.56-5.98c-0.21-2.44,0.17-4.94-0.42-7.32
				c-0.12-0.47-0.27-0.97-0.16-1.44c0.15-0.61,0.69-1.01,1.12-1.46c0.94-0.99,1.42-2.38,1.43-3.75c0.02-1.81-0.71-3.58-0.59-5.39
				c0.12-1.9,1.15-3.6,2.15-5.22c0.22-0.35,0.43-0.7,0.55-1.1c0.1-0.34,0.12-0.7,0.14-1.06c0.12-2.11,0.23-4.23,0.35-6.34
				c1.37,2.18,2.23,4.67,2.49,7.23c0.15,1.48,0.13,3.08,0.99,4.3c0.2,0.29,0.45,0.54,0.62,0.85c0.2,0.37,0.28,0.79,0.36,1.2
				c0.31,1.66,0.61,3.32,0.81,5c0.16,1.28,0.25,2.58,0.29,3.87c0.03,0.84,0.03,1.67,0.01,2.51c-0.04,1.88-0.19,3.77,0.08,5.63
				c0.26,1.76,0.91,3.52,0.62,5.28c-0.29,1.77-1.5,3.26-2.87,4.43c1.45-0.56,2.91-1.11,4.36-1.67"/>
			<path class="st4" d="M194.06,162.43c0.05-2.28-1.63-4.29-1.8-6.57c-0.1-1.42,0.39-2.89-0.02-4.25c-0.18-0.6-0.53-1.14-0.75-1.72
				c-0.48-1.26-0.35-2.73,0.33-3.89c0.19-0.32,0.42-0.62,0.54-0.97c0.35-1-0.24-2.1-0.07-3.14c0.06-0.34,0.19-0.66,0.3-0.99
				c0.22-0.66,0.35-1.35,0.48-2.03c0.57-3.05,1.14-6.1,1.71-9.14c0.09-0.47,0.18-0.94,0.26-1.41c0.36-1.94,0.73-3.89,1.09-5.83
				c0.67,3.39,1.34,6.78,2,10.17c0.13,0.64,0.25,1.28,0.38,1.93c0.4,2.06,0.81,4.11,1.21,6.17c0.51,2.57,1.01,5.15,1.25,7.76
				c0.17,1.88,0.2,3.77,0.13,5.65c-0.11,3.35-0.52,6.68-0.93,10c0.18-0.61,0.36-1.23,0.54-1.84"/>
			<path class="st4" d="M204.26,162.54c-1.1-0.15-1.88-1.21-2.15-2.28c-0.27-1.08-0.16-2.21-0.21-3.32
				c-0.04-0.82-0.16-1.62-0.23-2.44c-0.07-0.84-0.08-1.68-0.09-2.52c-0.02-2.28-0.05-4.56-0.07-6.84c-0.02-2.07-0.04-4.18,0.61-6.14
				c0.27-0.82,0.66-1.65,0.5-2.5c0.33,1.61,0.66,3.22,0.99,4.83c0.38,1.88,0.83,3.87,2.2,5.21c0.74,0.72,1.72,1.21,2.32,2.06
				c0.7,1.01,0.74,2.32,0.75,3.55c0.01,0.94,0.02,1.88,0.02,2.82c0.02,2.85-0.03,5.94-1.78,8.19c0.29,0.42,0.87,0.61,1.35,0.44"/>
			<path class="st4" d="M218.9,168.43c-2.76-0.79-4.21-3.73-5.34-6.36c-0.1-0.23-0.2-0.46-0.19-0.71c0.01-0.68,0.76-1.18,0.75-1.86
				c-0.01-0.27-0.14-0.53-0.14-0.81c0.02-0.86,1.29-1.11,1.65-1.9c0.28-0.62-0.08-1.32-0.18-1.99c-0.21-1.33,0.6-2.82-0.09-3.98
				c-0.63-1.05-2.34-1.54-2.19-2.75c0.03-0.27,0.17-0.52,0.3-0.76c0.96-1.76,1.72-3.62,2.28-5.54c0.62-2.14,0.99-4.35,1.35-6.56
				c0.4-2.46,0.81-4.92,1.21-7.38c0.76,2.43,0.71,5.02,1.16,7.52c0.28,1.54,0.74,3.05,1.2,4.55c0.14,0.44,0.27,0.89,0.41,1.33
				c0.08,0.25,0.15,0.5,0.28,0.73c0.32,0.6,0.93,1.01,1.31,1.58c0.92,1.38,0.44,3.54,1.76,4.54c-0.91,0.57-1.3,1.85-0.86,2.84
				c0.21,0.48,0.58,0.87,0.8,1.34c0.31,0.65,0.3,1.4,0.29,2.12c-0.03,2.22-0.06,4.45-0.09,6.67c-0.01,0.71-0.02,1.43-0.27,2.09
				c-0.32,0.86-0.99,1.53-1.44,2.32s-0.63,1.89,0,2.56c0.39,0.02,0.77,0.03,1.16,0.05"/>
			<path class="st4" d="M228.75,172.94c-1.16,0-2.21-0.8-2.83-1.78c-0.62-0.98-0.9-2.14-1.17-3.27c-0.49-2.06-0.94-4.37,0.14-6.19
				c0.17-0.29,0.39-0.58,0.44-0.92c0.07-0.47-0.18-0.92-0.34-1.36c-0.3-0.79-0.33-1.66-0.33-2.51c-0.01-5.41,0.94-10.82,2.8-15.9
				c1.79,1.96,1.81,4.91,2.81,7.36c0.49,1.19,1.21,2.26,1.78,3.41c2.12,4.24,2.14,9.18,2.07,13.91c-0.02,1.45-0.04,2.89-0.07,4.34
				c-0.02,1.02-0.05,2.08-0.51,2.98c-0.46,0.91-1.49,1.62-2.47,1.37"/>
		</g>
	</g>
	<g id="text" style="clip-path:url(#SVGID_00000093871997058083983490000014324563210433206427_);">
		<g>
			<rect x="135.53" y="76.9" class="st9" width="82.35" height="36.51"/>
			<path class="st9" d="M217.38,77.4v35.51h-81.35V77.4H217.38 M218.38,76.4h-1h-81.35h-1v1v35.51v1h1h81.35h1v-1V77.4V76.4
				L218.38,76.4z"/>
		</g>
		<g>
			<g>
				<path d="M27.51,107.88v-28.6h-4.75v-4.59h9.92v14.5c3.1-2.5,6.04-3.75,8.83-3.75c1.74,0,3.17,0.36,4.29,1.09
					c1.12,0.72,1.89,1.68,2.29,2.87c0.41,1.19,0.61,2.92,0.61,5.2v13.28h4.48v4.59h-9.64V96.39c0-1.99-0.06-3.32-0.19-3.99
					c-0.13-0.67-0.48-1.22-1.05-1.66c-0.57-0.44-1.25-0.65-2.02-0.65c-1.99,0-4.53,1.13-7.61,3.4v14.4h4.56v4.59H22.75v-4.59H27.51z
					"/>
				<path d="M82.18,107.88v4.59h-9.02v-3.21c-2.5,2.43-5.29,3.64-8.37,3.64c-2.39,0-4.47-0.78-6.23-2.34
					c-1.77-1.56-2.65-3.55-2.65-5.98c0-2.44,0.94-4.47,2.81-6.08c1.88-1.61,4.13-2.42,6.78-2.42c2.46,0,4.84,0.74,7.14,2.23v-2.61
					c0-1.34-0.13-2.37-0.38-3.1c-0.25-0.72-0.85-1.38-1.78-1.96s-2.15-0.87-3.65-0.87c-2.59,0-4.46,1.03-5.62,3.1l-4.94-1.3
					c2.19-4.09,5.98-6.14,11.35-6.14c1.97,0,3.68,0.27,5.12,0.8s2.51,1.22,3.22,2.06c0.71,0.84,1.18,1.75,1.43,2.73
					c0.24,0.98,0.37,2.54,0.37,4.67v12.17H82.18z M72.64,102.69c-2.23-1.74-4.48-2.61-6.76-2.61c-1.43,0-2.63,0.42-3.59,1.25
					c-0.96,0.83-1.44,1.91-1.44,3.23c0,1.23,0.42,2.26,1.26,3.1s1.99,1.25,3.44,1.25c2.5,0,4.86-1.05,7.09-3.15V102.69z"/>
				<path d="M84.76,112.47v-4.59h4.67v-28.6h-4.67v-4.59h9.72V89.9c2.59-2.97,5.77-4.45,9.53-4.45c3.62,0,6.66,1.25,9.11,3.73
					c2.45,2.49,3.68,5.77,3.68,9.85c0,3.91-1.2,7.2-3.6,9.87c-2.4,2.67-5.47,4.01-9.22,4.01c-2.1,0-4.02-0.45-5.76-1.36
					s-2.99-1.91-3.75-3.02v3.94H84.76z M94.65,99.38c0,2.73,0.84,4.9,2.51,6.51s3.61,2.4,5.8,2.4c2.3,0,4.28-0.85,5.95-2.55
					s2.5-3.98,2.5-6.85c0-2.77-0.83-4.92-2.49-6.45c-1.66-1.53-3.6-2.29-5.83-2.29c-2.19,0-4.15,0.79-5.87,2.38
					C95.5,94.1,94.65,96.39,94.65,99.38z"/>
				<path d="M123.66,107.88V90.77h-4.07v-4.59h9.24v21.7h4.07v4.59h-13.31v-4.59H123.66z M122.92,77.24c0-0.83,0.29-1.56,0.88-2.17
					c0.59-0.62,1.33-0.92,2.24-0.92c0.85,0,1.58,0.3,2.2,0.9c0.62,0.6,0.92,1.33,0.92,2.2s-0.31,1.61-0.92,2.21
					c-0.62,0.61-1.35,0.91-2.2,0.91c-0.87,0-1.61-0.31-2.21-0.92C123.23,78.83,122.92,78.09,122.92,77.24z"/>
				<path d="M136,112.47v-9.02h4.62v0.87c0.16,1.23,0.83,2.25,2,3.04s2.55,1.19,4.14,1.19c1.67,0,3-0.29,3.99-0.87
					c1-0.58,1.49-1.39,1.49-2.42c0-1-0.41-1.73-1.24-2.2c-0.82-0.47-2.46-0.9-4.9-1.3c-3.62-0.61-6.21-1.6-7.75-2.97
					c-1.55-1.37-2.32-3.14-2.32-5.31c0-2.19,0.84-4.03,2.53-5.5c1.68-1.48,3.9-2.22,6.66-2.22c2.48,0,4.62,0.51,6.41,1.53v-1.12
					h4.59v8.72h-4.59v-1.6c-1.39-2.15-3.42-3.23-6.08-3.23c-1.36,0-2.48,0.29-3.35,0.88s-1.32,1.37-1.32,2.35
					c0,1,0.4,1.68,1.21,2.05s2.54,0.76,5.2,1.18c2.55,0.4,4.48,0.86,5.79,1.4c1.3,0.53,2.39,1.42,3.25,2.66
					c0.86,1.24,1.29,2.69,1.29,4.33c0,2.45-0.94,4.39-2.81,5.83c-1.87,1.44-4.3,2.16-7.29,2.16c-2.81,0-5.1-0.64-6.87-1.91v1.48H136
					z"/>
				<path d="M160.09,90.77v-4.59h3.42v-4.05l5.16-4.73v8.77h4.86v4.59h-4.86v12.77c0,2.05,0.11,3.31,0.34,3.79
					c0.23,0.48,0.79,0.72,1.7,0.72c0.96,0,1.9-0.18,2.83-0.54v4.7c-1.32,0.47-2.64,0.71-3.97,0.71c-1.58,0-2.85-0.35-3.83-1.05
					c-0.98-0.7-1.59-1.57-1.85-2.62c-0.25-1.05-0.38-2.86-0.38-5.43V90.77H160.09z"/>
				<path d="M203.13,107.88v4.59h-9.02v-3.21c-2.5,2.43-5.29,3.64-8.37,3.64c-2.39,0-4.47-0.78-6.23-2.34
					c-1.77-1.56-2.65-3.55-2.65-5.98c0-2.44,0.94-4.47,2.81-6.08c1.88-1.61,4.13-2.42,6.78-2.42c2.46,0,4.84,0.74,7.14,2.23v-2.61
					c0-1.34-0.13-2.37-0.38-3.1c-0.25-0.72-0.85-1.38-1.78-1.96s-2.15-0.87-3.65-0.87c-2.59,0-4.46,1.03-5.62,3.1l-4.94-1.3
					c2.19-4.09,5.98-6.14,11.35-6.14c1.97,0,3.68,0.27,5.12,0.8s2.51,1.22,3.22,2.06c0.71,0.84,1.18,1.75,1.43,2.73
					c0.24,0.98,0.37,2.54,0.37,4.67v12.17H203.13z M193.6,102.69c-2.23-1.74-4.48-2.61-6.76-2.61c-1.43,0-2.63,0.42-3.59,1.25
					c-0.96,0.83-1.44,1.91-1.44,3.23c0,1.23,0.42,2.26,1.26,3.1s1.99,1.25,3.44,1.25c2.5,0,4.86-1.05,7.09-3.15V102.69z"/>
				<path d="M203.94,90.77v-4.59h3.42v-4.05l5.16-4.73v8.77h4.86v4.59h-4.86v12.77c0,2.05,0.11,3.31,0.34,3.79
					c0.23,0.48,0.79,0.72,1.7,0.72c0.96,0,1.9-0.18,2.83-0.54v4.7c-1.32,0.47-2.64,0.71-3.97,0.71c-1.58,0-2.85-0.35-3.83-1.05
					c-0.98-0.7-1.59-1.57-1.85-2.62c-0.25-1.05-0.38-2.86-0.38-5.43V90.77H203.94z"/>
			</g>
			<g>
				<path class="st6" d="M65.3,66.1h2.01c1.53,0,2.3,0.54,2.3,1.61c0,0.74-0.27,1.32-0.82,1.74s-1.3,0.63-2.26,0.63h-2.34
					c-1.05,0-1.76-0.41-2.14-1.22c-0.91,0.82-1.8,1.22-2.65,1.22h-2.08c-1.34,0-2.42-0.48-3.24-1.43c-0.82-0.96-1.23-2.21-1.23-3.75
					c0-2.34,0.81-4.43,2.42-6.27c1.61-1.84,3.44-2.77,5.47-2.77c1.56,0,2.7,0.54,3.42,1.63c0.61-0.91,1.41-1.37,2.39-1.37
					c0.54,0,0.98,0.17,1.34,0.51c0.36,0.34,0.54,0.76,0.54,1.26c0,0.34-0.1,0.75-0.29,1.22l-0.2,0.49L65.3,66.1z M58.67,66.19h0.46
					c1,0,1.66-0.41,1.99-1.22l1.28-3.16c0.17-0.41,0.25-0.76,0.25-1.04c0-0.33-0.16-0.61-0.48-0.86c-0.32-0.24-0.71-0.37-1.16-0.37
					c-0.89,0-1.75,0.52-2.59,1.55c-0.84,1.04-1.26,2.11-1.26,3.21C57.16,65.56,57.66,66.19,58.67,66.19z"/>
				<path class="st6" d="M77.39,78.81h2.01c1.55,0,2.32,0.55,2.32,1.64c0,0.74-0.27,1.32-0.81,1.73c-0.54,0.41-1.31,0.61-2.29,0.61
					h-3.38c-0.83,0-1.5-0.21-2.01-0.62c-0.51-0.41-0.77-0.96-0.77-1.63c0-0.49,0.17-1.15,0.51-1.99l3.76-9.26
					c-0.66,0.52-1.42,0.79-2.3,0.79c-1.22,0-2.23-0.47-3.04-1.4s-1.21-2.09-1.21-3.48c0-1.28,0.29-2.59,0.87-3.94
					c0.58-1.35,1.32-2.46,2.22-3.32c1.46-1.39,3.18-2.08,5.17-2.08c1.67,0,3.03,0.48,4.08,1.43c1.05,0.96,1.58,2.19,1.58,3.72
					c0,0.85-0.24,1.86-0.71,3.01L77.39,78.81z M78.38,65.26l1.26-3.12c0.13-0.34,0.2-0.68,0.2-1c0-0.37-0.17-0.67-0.5-0.92
					c-0.33-0.25-0.75-0.37-1.23-0.37c-0.83,0-1.61,0.47-2.36,1.42c-0.74,0.95-1.11,1.95-1.11,3.01c0,1.19,0.63,1.79,1.9,1.79
					c0.38,0,0.76-0.08,1.14-0.26C78.05,65.64,78.29,65.45,78.38,65.26z"/>
				<path class="st6" d="M97.78,66.1h2.12c0.84,0,1.44,0.12,1.79,0.37c0.35,0.25,0.53,0.66,0.53,1.23c0,0.74-0.27,1.32-0.81,1.74
					s-1.3,0.63-2.27,0.63h-3.27c-1.02,0-1.71-0.4-2.05-1.19c-0.67,0.79-1.51,1.19-2.52,1.19h-2.67c-1.07,0-1.96-0.33-2.67-1
					c-0.71-0.67-1.06-1.52-1.06-2.54c0-0.58,0.16-1.27,0.47-2.04l2.48-6.1c0.69-1.69,1.64-2.54,2.85-2.54c0.52,0,0.97,0.17,1.33,0.5
					s0.55,0.75,0.55,1.23c0,0.37-0.1,0.79-0.29,1.26l-0.2,0.49l-1.92,4.69l-0.2,0.55c-0.11,0.32-0.17,0.55-0.18,0.71
					c-0.02,0.55,0.33,0.82,1.06,0.82c1.51,0,2.51-0.61,3.01-1.83l2.28-5.62c0.68-1.7,1.64-2.56,2.89-2.56
					c0.51,0,0.95,0.17,1.31,0.51c0.37,0.34,0.55,0.75,0.55,1.22c0,0.38-0.16,0.96-0.47,1.75L97.78,66.1z"/>
				<path class="st6" d="M115.19,66.1h2.01c1.53,0,2.3,0.54,2.3,1.61c0,0.74-0.27,1.32-0.82,1.74s-1.3,0.63-2.26,0.63h-2.34
					c-1.05,0-1.76-0.41-2.14-1.22c-0.91,0.82-1.8,1.22-2.65,1.22h-2.08c-1.34,0-2.42-0.48-3.24-1.43c-0.82-0.96-1.23-2.21-1.23-3.75
					c0-2.34,0.81-4.43,2.42-6.27c1.61-1.84,3.44-2.77,5.47-2.77c1.56,0,2.7,0.54,3.42,1.63c0.61-0.91,1.41-1.37,2.39-1.37
					c0.54,0,0.98,0.17,1.34,0.51c0.36,0.34,0.54,0.76,0.54,1.26c0,0.34-0.1,0.75-0.29,1.22l-0.2,0.49L115.19,66.1z M108.56,66.19
					h0.46c1,0,1.66-0.41,1.99-1.22l1.28-3.16c0.17-0.41,0.25-0.76,0.25-1.04c0-0.33-0.16-0.61-0.48-0.86
					c-0.32-0.24-0.71-0.37-1.16-0.37c-0.89,0-1.75,0.52-2.59,1.55c-0.84,1.04-1.26,2.11-1.26,3.21
					C107.05,65.56,107.55,66.19,108.56,66.19z"/>
				<path class="st6" d="M129.2,56.11h0.57c1.55,0,2.32,0.54,2.32,1.63c0,0.74-0.27,1.32-0.82,1.73s-1.3,0.62-2.26,0.62h-1.33
					l-2.45,6.01h2.05c1.55,0,2.32,0.54,2.32,1.62c0,0.74-0.27,1.32-0.81,1.73c-0.54,0.41-1.3,0.62-2.27,0.62h-3.27
					c-0.93,0-1.66-0.21-2.2-0.64c-0.54-0.43-0.81-1-0.81-1.73c0-0.45,0.11-0.95,0.33-1.5l0.35-0.8l2.16-5.31h-0.27
					c-1.36,0-2.04-0.53-2.04-1.59c0-0.75,0.27-1.34,0.81-1.76s1.3-0.63,2.27-0.63h0.84l0.97-2.39l0.2-0.49
					c0.57-1.35,1.47-2.03,2.7-2.03c0.5,0,0.93,0.17,1.29,0.5s0.54,0.74,0.54,1.21c0,0.46-0.16,1.05-0.47,1.75L129.2,56.11z"/>
				<path class="st6" d="M135.9,66.1h2.06c1.53,0,2.3,0.54,2.3,1.62c0,0.74-0.27,1.32-0.81,1.73c-0.54,0.41-1.3,0.62-2.27,0.62h-2.9
					c-1.07,0-1.91-0.22-2.53-0.66c-0.62-0.44-0.92-1.03-0.92-1.79c0-0.4,0.13-0.91,0.38-1.53l3.01-7.41l0.2-0.51
					c0.56-1.38,1.46-2.06,2.7-2.06c0.51,0,0.95,0.17,1.32,0.51c0.37,0.34,0.56,0.75,0.56,1.22c0,0.39-0.16,0.99-0.49,1.79
					L135.9,66.1z M138.31,50.28c0.71,0,1.31,0.25,1.8,0.74s0.74,1.09,0.74,1.8s-0.25,1.31-0.74,1.8s-1.09,0.74-1.8,0.74
					s-1.31-0.25-1.8-0.74s-0.74-1.09-0.74-1.8s0.25-1.31,0.74-1.8S137.6,50.28,138.31,50.28z"/>
				<path class="st6" d="M151.17,70.08h-5.3c-1.52,0-2.76-0.54-3.72-1.61c-0.96-1.07-1.43-2.46-1.43-4.16
					c0-2.28,0.79-4.26,2.36-5.94c1.57-1.68,3.42-2.52,5.53-2.52c1.44,0,2.61,0.4,3.51,1.21c0.9,0.8,1.35,1.85,1.35,3.14
					c0,0.9-0.23,1.64-0.68,2.22s-1.03,0.87-1.73,0.87c-1.12,0-1.68-0.52-1.68-1.57c0-0.16,0-0.29,0-0.4
					c0.01-0.13,0.02-0.26,0.02-0.38c0-0.85-0.42-1.28-1.26-1.28c-0.79,0-1.51,0.42-2.16,1.26c-0.65,0.84-0.98,1.78-0.98,2.81
					c0,0.86,0.26,1.48,0.79,1.84c0.53,0.36,1.43,0.54,2.69,0.54h3.45c1.55,0,2.32,0.54,2.32,1.62c0,0.73-0.28,1.31-0.83,1.73
					S152.12,70.08,151.17,70.08z"/>
			</g>
		</g>
	</g>
	<g id="graph" style="clip-path:url(#SVGID_00000093871997058083983490000014324563210433206427_);">
		<g>
			<polyline class="st14" points="109.3,117.56 109.3,165.48 188.17,165.48 			"/>
			<path class="st14" d="M115.29,165.48c1.34-3.7,3.46-7.74,6.94-10.93c7.87-7.2,16.09-3.99,26.43-8.38
				c13.73-5.83,14.69-17.01,22.38-17.84c3.29-0.36,7.14,0.07,12.6,8"/>
			<path class="st14" d="M112.59,165.46c3.21-11.75,8.63-17.51,14.01-20.41c8.41-4.52,13.69-0.43,23.16-5.21
				c12.32-6.21,11.86-17.4,20.16-19.17c3.13-0.67,7.53,0,13.71,4.88"/>
			<path class="st14" d="M118.96,165.48c1.84-2.53,4.4-5.13,7.95-6.96c10.79-5.57,19.04,1.94,29.37-3.3
				c9.7-4.92,9.86-15.33,16.99-15.77c4.21-0.26,7.92,3.15,10.37,6.05"/>
		</g>
		<g>
			<path d="M194.53,167.81l0.27,0.49c0.08,0.14,0.17,0.23,0.28,0.27s0.28,0.07,0.53,0.07h2.17c0.54,0,0.81,0.19,0.81,0.57
				c0,0.26-0.09,0.46-0.28,0.61s-0.45,0.22-0.79,0.22h-2.75c-0.41,0-0.73-0.21-0.97-0.62l-0.53-0.91c-0.33,0.11-0.66,0.17-1,0.17
				c-0.73,0-1.31-0.25-1.74-0.76s-0.64-1.2-0.64-2.08c0-0.67,0.13-1.38,0.39-2.12s0.59-1.36,0.99-1.85
				c0.39-0.47,0.84-0.84,1.34-1.11s1-0.4,1.49-0.4c0.73,0,1.33,0.26,1.78,0.77s0.67,1.19,0.67,2.02c0,0.87-0.19,1.73-0.57,2.6
				S195.13,167.3,194.53,167.81z M193.79,166.52c0.38-0.46,0.68-0.99,0.89-1.58s0.32-1.18,0.32-1.76c0-0.43-0.1-0.76-0.29-1.01
				s-0.46-0.38-0.79-0.38c-0.57,0-1.08,0.35-1.54,1.05c-0.26,0.4-0.48,0.89-0.66,1.47s-0.27,1.09-0.27,1.54
				c0,0.4,0.09,0.73,0.26,0.98s0.39,0.39,0.66,0.39c0.04,0,0.09-0.01,0.17-0.02l-0.22-0.37c-0.18-0.3-0.26-0.53-0.26-0.7
				c0-0.2,0.07-0.37,0.2-0.5s0.3-0.21,0.49-0.21c0.17,0,0.31,0.04,0.41,0.12s0.22,0.24,0.36,0.48L193.79,166.52z"/>
		</g>
		<g>
			<path d="M103.71,123.5h-1.62l-1.94,3.36c-0.91,1.59-2,2.38-3.25,2.38c-0.77,0-1.42-0.28-1.94-0.83s-0.78-1.24-0.78-2.05
				c0-0.66,0.2-1.3,0.6-1.92s0.95-1.13,1.65-1.53c0.52-0.3,1.1-0.51,1.73-0.63s1.47-0.18,2.53-0.18h0.43l0.46-0.85
				c0.64-1.18,1.43-1.97,2.36-2.37c0.6-0.25,1.38-0.38,2.34-0.38c0.25,0,0.44,0.05,0.58,0.16s0.21,0.26,0.21,0.46
				c0,0.09-0.02,0.2-0.07,0.32l-0.05,0.13l-1.01,2.53h0.45h0.15c0.44,0,0.66,0.19,0.66,0.57c0,0.23-0.09,0.43-0.27,0.59
				s-0.4,0.24-0.66,0.24h-0.16h-0.74l-0.65,1.6h0.96h0.15c0.44,0,0.66,0.19,0.66,0.56c0,0.23-0.09,0.43-0.27,0.59
				s-0.4,0.24-0.66,0.24h-0.16h-1.25c-0.34,0-0.61-0.09-0.82-0.26s-0.32-0.4-0.32-0.68c0-0.21,0.08-0.52,0.24-0.91L103.71,123.5z
				 M100.31,123.5h-0.5c-1.12,0-2,0.21-2.66,0.62c-0.42,0.27-0.75,0.6-1,1s-0.37,0.8-0.37,1.21c0,0.37,0.12,0.69,0.36,0.95
				s0.53,0.4,0.87,0.4c0.59,0,1.11-0.39,1.56-1.17L100.31,123.5z M104.28,122.1l0.84-2.08c-0.41,0.03-0.76,0.16-1.05,0.4
				s-0.61,0.67-0.97,1.29l-0.24,0.4H104.28z"/>
		</g>
	</g>
	<g id="fish" style="clip-path:url(#SVGID_00000093871997058083983490000014324563210433206427_);">
		<g>
			<path class="st15" d="M117.07,200.11c0.05,0.06,0.11,0.13,0.18,0.2C117.22,200.22,117.17,200.14,117.07,200.11z"/>
			<path class="st15" d="M131.17,231.49c2.5-8.67-1.21-16.56-4.75-21.61c-1.28-1.84-2.81-3.37-3.9-5.14c-0.85-0.2-1.6-1.1-2.43-1.84
				c-1.06-0.96-2.29-2-2.85-2.59c0.01,0.03,0.02,0.05,0.03,0.08c-2.08-1.7-4.7-2.77-6.41-4.77c-1.07-1.25-1.16-3.02-2.58-4.08
				c0.29-0.58-0.24-2.62-1.19-3.07l-2.74-0.23c-4.4-0.61-8.31-0.55-11.65,0.59c-11.28-2.5-21.07-0.37-31.21,0.72
				c-4.19,0.45-8.66,1.01-13.25,1.45c-4.08,0.39-9.53,0.39-12.93,1.75c-0.93,0.37-1.79,1.12-2.25,1.88l-0.23,1.56
				c0.23-0.09,0.66,0.75,1.21,0.92c0.61,0.19,1.32-0.16,1.98-0.07c1.81,0.25,2.87,1.47,3.52,2.74c1.57,0.67,2.2,1.59,3.34,2.35
				c-1.45-0.17-3.28-0.99-4.68-1.56c-0.06-0.73-0.84-0.68-1.28-1.3c-1.51-0.01-3.67-0.43-4.05,0.75c-0.36,1.12,1.48,2.52,2.43,3.44
				c1.19,1.14,2.42,2.32,3.25,2.95c4.99,3.8,10.85,6.21,17.27,8.62c3.35,1.26,6.87,1.93,10.09,3.24c1.39,0.57,2.78,1.76,4.28,2.61
				c2.78,1.56,5.78,3.34,9.24,3.97c-1.03-1.23-2.84-2.46-3.1-3.91c7.09,0.97,13.34,2.19,19.91,3.36c1.84,3.2,3.61,6.45,6.95,8.55
				c0.4-0.4-0.23-0.8-0.28-1.4c-0.11-1.14,0.42-2.59,0.48-3.98c3.28,2.43,7.48,5.66,12.92,6.49c-1.27-2.33-2.02-6.38-4.57-8.06
				c2.77,0.12,5.78,1.09,8.17,2.09c0.44,0.43,0.03,1.47,0.59,1.81c0.82,0.19,1.01-0.46,1.88-0.21c0.22,1.08-0.12,3.23-1.04,3.66
				c-2.69-0.58-2.78-3.08-4.09-4.67c0.03,2.69-0.35,5.78,0.06,8.62c0.11,0.76,0.57,1.46,0.65,2.19c0.14,1.24-0.48,2.21-0.75,3.33
				c-1.25,5.25-3.05,11.19-1.92,16.06c0.08,0.01,0.16,0.02,0.24,0.04c1.6-3.07,2.86-6.15,4.19-9.08c1.24-2.75,3.02-6.27,4.91-8.12
				c0.5-0.49,1.26-0.82,1.8-1.33c0.58-0.55,1.04-1.24,1.61-1.73c0.94-0.8,2.27-1.18,2.62-2.68c0.81-0.35,1.56-0.78,2.48-0.98
				c0.02-0.12,0.04-0.24,0.05-0.36C132.68,233.37,131.66,232.62,131.17,231.49z"/>
		</g>
		<g>
			<path d="M136.41,205.58c0.42-0.07,0.83,0.21,0.9,0.63c0.07,0.42-0.21,0.83-0.63,0.9c-0.42,0.07-0.83-0.21-0.9-0.63
				C135.7,206.05,135.98,205.65,136.41,205.58z"/>
			<path d="M132.96,207.44c0.74,2.42,5.43,3.72,10.28,4.52c-0.28,0.64-0.65,1.85,0.33,2.28c0,0,0.25-1.16,0.87-2.1
				c1.25,0.18,2.49,0.34,3.66,0.47c2.67,0.3,6.14,0.11,9.79-0.31l0,0l0,0c0.13-0.01,0.26-0.03,0.39-0.05
				c0.34-0.01,0.83,0.06,1.15,0.47c0.54,0.67,2.26,2.75,3.8,2.69c0,0,1.44-2.42,0.69-3.4c-0.13-0.17-0.3-0.32-0.51-0.46
				c1.38-0.21,2.74-0.44,4.06-0.66c1.08,1.65,3.84,5.43,6.38,5.31c0,0-0.28-4.42,3.11-5.78c1.19-0.48,1.39-0.84,1.14-1.11
				c0.02,0,0.04,0,0.06,0c4.93-0.16,9.59,6.98,11.87,6.02s-1.17-6.7-1.17-6.7c-1.74-1.58,5.89-4.24,3.23-6.29
				c-1.29-0.99-6,1.19-8.07,1.76c-2.06,0.57-5.52,0.34-5.52,0.34c-0.58-0.16-1.17-0.32-1.77-0.47c0.41-0.2,0.77-0.41,0.86-0.54
				c0.22-0.34-1.04-0.94-1.31-1.11c-0.2-0.12-2.65,0.38-3.98,0.66c-2.7-0.53-5.42-0.95-7.85-1.28c0.98-0.67,1.95-1.35,2.34-1.63
				c0.87-0.64-2.81-6.49-2.81-6.49c-6.82,2.52-6.17,5.82-6.96,6.52c-0.6,0.53-1.37,0.64-1.71,0.67c-0.06,0-0.11,0-0.17,0.01
				c0,0,0,0,0,0l0,0C128.97,201.94,132.96,207.44,132.96,207.44z M134.98,206.62c-0.15-0.89,0.44-1.73,1.32-1.88
				c0.89-0.15,1.73,0.44,1.88,1.32c0.15,0.89-0.44,1.73-1.32,1.88C135.98,208.09,135.14,207.5,134.98,206.62z"/>
		</g>
		<g>
			<path d="M206.95,184.91c-0.42-0.07-0.82,0.22-0.9,0.64c-0.07,0.42,0.22,0.82,0.64,0.9c0.42,0.07,0.82-0.22,0.89-0.64
				C207.66,185.38,207.37,184.98,206.95,184.91z"/>
			<path d="M188.18,180.26L188.18,180.26C188.18,180.26,188.18,180.26,188.18,180.26c-0.06,0-0.12,0-0.17-0.01
				c-0.34-0.02-1.11-0.13-1.71-0.66c-0.79-0.69-0.17-4-7.01-6.46c0,0-3.63,5.88-2.76,6.51c0.38,0.28,1.37,0.95,2.35,1.61
				c-2.43,0.35-5.15,0.79-7.84,1.34c-1.34-0.27-3.79-0.75-3.99-0.63c-0.27,0.16-1.52,0.77-1.3,1.12c0.09,0.13,0.45,0.34,0.86,0.54
				c-0.6,0.16-1.19,0.32-1.76,0.49c0,0-3.46,0.26-5.53-0.29c-2.07-0.55-6.8-2.69-8.08-1.69c-2.64,2.07,5.01,4.67,3.28,6.26
				c0,0-3.4,5.78-1.12,6.71c2.28,0.94,6.89-6.24,11.82-6.12c0.02,0,0.04,0,0.06,0c-0.25,0.27-0.05,0.64,1.15,1.11
				c3.4,1.33,3.15,5.75,3.15,5.75c2.55,0.1,5.27-3.7,6.34-5.36c1.32,0.21,2.68,0.42,4.06,0.62c-0.2,0.14-0.38,0.29-0.51,0.46
				c-0.74,0.99,0.72,3.4,0.72,3.4c1.54,0.05,3.25-2.04,3.78-2.72c0.32-0.4,0.8-0.48,1.14-0.47c0.13,0.01,0.26,0.03,0.39,0.04l0,0
				l0,0c3.65,0.39,7.12,0.55,9.79,0.23c1.16-0.14,2.4-0.3,3.65-0.5c0.63,0.93,0.89,2.09,0.89,2.09c0.98-0.44,0.6-1.64,0.31-2.29
				c4.84-0.83,9.53-2.17,10.24-4.6C210.4,186.75,214.35,181.21,188.18,180.26z M206.51,187.28c-0.89-0.15-1.49-0.99-1.34-1.87
				c0.15-0.89,0.99-1.49,1.87-1.34c0.89,0.15,1.49,0.99,1.34,1.87C208.23,186.83,207.39,187.43,206.51,187.28z"/>
		</g>
	</g>
</g>
<g id="hex">
	<path class="st16" d="M240.76,208.54V69.52l-9.58-5.54L140.3,11.42L120.57,0.03l-19.73,11.4L9.95,63.99l-9.58,5.53V208.5l9.58,5.54
		l92.03,53.21l18.61,10.74l18.61-10.74l92.03-53.21L240.76,208.54z M9.95,203.32V75.39l110.62-63.96l0,0l110.61,63.96v127.93
		l-110.61,63.96L9.95,203.32z"/>
</g>
<g id="Layer_8">
</g>
<g id="wordmark">
</g>
</svg>
