<?xml version="1.0" encoding="utf-8"?>
<!-- Generator: Adobe Illustrator 28.0.0, SVG Export Plug-In . SVG Version: 6.00 Build 0)  -->
<svg version="1.1" xmlns="http://www.w3.org/2000/svg" xmlns:xlink="http://www.w3.org/1999/xlink" x="0px" y="0px"
	 viewBox="0 0 268.99 45.77" style="enable-background:new 0 0 268.99 45.77;" xml:space="preserve">
<style type="text/css">
	.Arched_x0020_Green{fill:url(#SVGID_1_);stroke:#FFFFFF;stroke-width:0.25;stroke-miterlimit:1;}
	.st0{clip-path:url(#SVGID_00000083795982193898549590000011106258168651455621_);}
	.st1{fill:#F1F1F2;}
	.st2{fill:#D0D2D3;}
	.st3{fill:#BBBDBF;}
	.st4{fill:#6D6E70;}
	.st5{display:none;fill:#26A9E0;}
	.st6{fill:#1B75BB;}
	.st7{fill:#FAAF40;}
	.st8{fill:#26A9E0;}
	.st9{fill:#F9EC31;}
	.st10{fill:#A6A8AB;}
	.st11{fill:#929497;}
	.st12{fill:#808184;}
	.st13{fill:none;stroke:#231F20;}
	.st14{fill:#231F20;}
	.st15{fill:none;stroke:#231F20;stroke-linecap:round;stroke-linejoin:round;}
	.st16{fill-rule:evenodd;clip-rule:evenodd;}
	.st17{fill:#2B388F;}
</style>
<linearGradient id="SVGID_1_" gradientUnits="userSpaceOnUse" x1="-2755.6387" y1="362.3696" x2="-2754.9316" y2="361.6624">
	<stop  offset="0" style="stop-color:#1EAB4B"/>
	<stop  offset="0.9831" style="stop-color:#19361A"/>
</linearGradient>
<g id="Layer_6">
	<defs>
		<polygon id="SVGID_00000060011906979733953080000005610668330799796889_" points="-92.88,54.2 -92.88,-84.82 -102.46,-90.36 
			-193.35,-142.92 -213.08,-154.31 -232.81,-142.91 -323.69,-90.35 -333.27,-84.82 -333.27,54.16 -323.69,59.7 -231.66,112.9 
			-213.05,123.65 -194.44,112.9 -102.41,59.7 		"/>
	</defs>
	<clipPath id="SVGID_00000115486521973383853080000017424223788573146272_">
		<use xlink:href="#SVGID_00000060011906979733953080000005610668330799796889_"  style="overflow:visible;"/>
	</clipPath>
	<g id="Layer_4" style="clip-path:url(#SVGID_00000115486521973383853080000017424223788573146272_);">
	</g>
	<g id="text" style="clip-path:url(#SVGID_00000115486521973383853080000017424223788573146272_);">
	</g>
	<g id="graph" style="clip-path:url(#SVGID_00000115486521973383853080000017424223788573146272_);">
	</g>
	<g id="fish" style="clip-path:url(#SVGID_00000115486521973383853080000017424223788573146272_);">
	</g>
</g>
<g id="hex">
</g>
<g id="Layer_8">
	<g id="XMLID_00000100362882280150717960000011861173967545844158_">
		<g>
			<path class="st9" d="M82.62,37.25v6.86H55.55v-8.65C64.43,36.48,73.35,37.25,82.62,37.25z"/>
			<path class="st8" d="M82.62,30.4v6.85c-9.26,0-18.19-0.77-27.07-1.79v-8.63C64.43,28.86,73.35,30.4,82.62,30.4z"/>
			<path class="st9" d="M82.62,23.54v6.86c-9.26,0-18.19-1.54-27.07-3.57v-8.71C64.43,21.21,73.35,23.54,82.62,23.54z"/>
			<path class="st7" d="M55.55,35.45v8.65H28.47V32.15C37.67,33.15,46.59,34.43,55.55,35.45z"/>
			<path class="st6" d="M55.55,26.82v8.63c-8.96-1.02-17.88-2.31-27.07-3.3V20.19C37.67,22.2,46.59,24.76,55.55,26.82z"/>
			<path class="st7" d="M55.55,18.12v8.71c-8.96-2.06-17.88-4.62-27.07-6.63V8.09C37.67,11.13,46.59,15.01,55.55,18.12z"/>
			<path class="st9" d="M28.47,32.15V44.1H1.4V30.5C10.85,30.5,19.78,31.2,28.47,32.15z"/>
			<path class="st8" d="M28.47,20.19v11.96C19.78,31.2,10.85,30.5,1.4,30.5V16.9C10.85,16.9,19.78,18.3,28.47,20.19z"/>
			<path class="st9" d="M28.47,8.09v12.11C19.78,18.3,10.85,16.9,1.4,16.9V3.09C10.85,3.09,19.78,5.21,28.47,8.09z"/>
		</g>
	</g>
</g>
<g id="wordmark">
	<g>
		<g>
			<rect x="186.35" y="8.59" class="st9" width="82.35" height="36.51"/>
			<path class="st9" d="M268.2,9.09V44.6h-81.35V9.09H268.2 M269.2,8.09h-1h-81.35h-1v1V44.6v1h1h81.35h1v-1V9.09V8.09L269.2,8.09z"
				/>
		</g>
		<g>
			<path d="M78.33,39.57v-28.6h-4.75V6.37h9.92v14.5c3.1-2.5,6.04-3.75,8.83-3.75c1.74,0,3.17,0.36,4.29,1.09
				c1.12,0.72,1.89,1.68,2.29,2.87c0.41,1.19,0.61,2.92,0.61,5.2v13.28H104v4.59h-9.64V28.08c0-1.99-0.06-3.32-0.19-3.99
				c-0.13-0.67-0.48-1.22-1.05-1.66c-0.57-0.44-1.25-0.65-2.02-0.65c-1.99,0-4.53,1.13-7.61,3.4v14.4h4.56v4.59H73.58v-4.59H78.33z"
				/>
			<path d="M133,39.57v4.59h-9.02v-3.21c-2.5,2.43-5.29,3.64-8.37,3.64c-2.39,0-4.47-0.78-6.23-2.34c-1.77-1.56-2.65-3.55-2.65-5.98
				c0-2.44,0.94-4.47,2.81-6.08c1.88-1.61,4.13-2.42,6.78-2.42c2.46,0,4.84,0.74,7.14,2.23V27.4c0-1.34-0.13-2.37-0.38-3.1
				c-0.25-0.72-0.85-1.38-1.78-1.96s-2.15-0.87-3.65-0.87c-2.59,0-4.46,1.03-5.62,3.1l-4.94-1.3c2.19-4.09,5.98-6.14,11.35-6.14
				c1.97,0,3.68,0.27,5.12,0.8s2.51,1.22,3.22,2.06c0.71,0.84,1.18,1.75,1.43,2.73c0.24,0.98,0.37,2.54,0.37,4.67v12.17H133z
				 M123.46,34.38c-2.23-1.74-4.48-2.61-6.76-2.61c-1.43,0-2.63,0.42-3.59,1.25c-0.96,0.83-1.44,1.91-1.44,3.23
				c0,1.23,0.42,2.26,1.26,3.1s1.99,1.25,3.44,1.25c2.5,0,4.86-1.05,7.09-3.15V34.38z"/>
			<path d="M135.58,44.16v-4.59h4.67v-28.6h-4.67V6.37h9.72v15.21c2.59-2.97,5.77-4.45,9.53-4.45c3.62,0,6.66,1.25,9.11,3.73
				c2.45,2.49,3.68,5.77,3.68,9.85c0,3.91-1.2,7.2-3.6,9.87c-2.4,2.67-5.47,4.01-9.22,4.01c-2.1,0-4.02-0.45-5.76-1.36
				s-2.99-1.91-3.75-3.02v3.94H135.58z M145.47,31.07c0,2.73,0.84,4.9,2.51,6.51s3.61,2.4,5.8,2.4c2.3,0,4.28-0.85,5.95-2.55
				s2.5-3.98,2.5-6.85c0-2.77-0.83-4.92-2.49-6.45c-1.66-1.53-3.6-2.29-5.83-2.29c-2.19,0-4.15,0.79-5.87,2.38
				C146.33,25.79,145.47,28.08,145.47,31.07z"/>
			<path d="M174.48,39.57V22.45h-4.07v-4.59h9.24v21.7h4.07v4.59h-13.31v-4.59H174.48z M173.75,8.93c0-0.83,0.29-1.56,0.88-2.17
				c0.59-0.62,1.33-0.92,2.24-0.92c0.85,0,1.58,0.3,2.2,0.9c0.62,0.6,0.92,1.33,0.92,2.2s-0.31,1.61-0.92,2.21
				c-0.62,0.61-1.35,0.91-2.2,0.91c-0.87,0-1.61-0.31-2.21-0.92C174.05,10.51,173.75,9.78,173.75,8.93z"/>
			<path d="M186.83,44.16v-9.02h4.62v0.87c0.16,1.23,0.83,2.25,2,3.04s2.55,1.19,4.14,1.19c1.67,0,3-0.29,3.99-0.87
				c1-0.58,1.49-1.39,1.49-2.42c0-1-0.41-1.73-1.24-2.2c-0.82-0.47-2.46-0.9-4.9-1.3c-3.62-0.61-6.21-1.6-7.75-2.97
				c-1.55-1.37-2.32-3.14-2.32-5.31c0-2.19,0.84-4.03,2.53-5.5c1.68-1.48,3.9-2.22,6.66-2.22c2.48,0,4.62,0.51,6.41,1.53v-1.12h4.59
				v8.72h-4.59v-1.6c-1.39-2.15-3.42-3.23-6.08-3.23c-1.36,0-2.48,0.29-3.35,0.88s-1.32,1.37-1.32,2.35c0,1,0.4,1.68,1.21,2.05
				s2.54,0.76,5.2,1.18c2.55,0.4,4.48,0.86,5.79,1.4c1.3,0.53,2.39,1.42,3.25,2.66c0.86,1.24,1.29,2.69,1.29,4.33
				c0,2.45-0.94,4.39-2.81,5.83c-1.87,1.44-4.3,2.16-7.29,2.16c-2.81,0-5.1-0.64-6.87-1.91v1.48H186.83z"/>
			<path d="M210.91,22.45v-4.59h3.42v-4.05l5.16-4.73v8.77h4.86v4.59h-4.86v12.77c0,2.05,0.11,3.31,0.34,3.79
				c0.23,0.48,0.79,0.72,1.7,0.72c0.96,0,1.9-0.18,2.83-0.54v4.7c-1.32,0.47-2.64,0.71-3.97,0.71c-1.58,0-2.85-0.35-3.83-1.05
				c-0.98-0.7-1.59-1.57-1.85-2.62c-0.25-1.05-0.38-2.86-0.38-5.43V22.45H210.91z"/>
			<path d="M253.96,39.57v4.59h-9.02v-3.21c-2.5,2.43-5.29,3.64-8.37,3.64c-2.39,0-4.47-0.78-6.23-2.34
				c-1.77-1.56-2.65-3.55-2.65-5.98c0-2.44,0.94-4.47,2.81-6.08c1.88-1.61,4.13-2.42,6.78-2.42c2.46,0,4.84,0.74,7.14,2.23V27.4
				c0-1.34-0.13-2.37-0.38-3.1c-0.25-0.72-0.85-1.38-1.78-1.96s-2.15-0.87-3.65-0.87c-2.59,0-4.46,1.03-5.62,3.1l-4.94-1.3
				c2.19-4.09,5.98-6.14,11.35-6.14c1.97,0,3.68,0.27,5.12,0.8s2.51,1.22,3.22,2.06c0.71,0.84,1.18,1.75,1.43,2.73
				c0.24,0.98,0.37,2.54,0.37,4.67v12.17H253.96z M244.42,34.38c-2.23-1.74-4.48-2.61-6.76-2.61c-1.43,0-2.63,0.42-3.59,1.25
				c-0.96,0.83-1.44,1.91-1.44,3.23c0,1.23,0.42,2.26,1.26,3.1s1.99,1.25,3.44,1.25c2.5,0,4.86-1.05,7.09-3.15V34.38z"/>
			<path d="M254.76,22.45v-4.59h3.42v-4.05l5.16-4.73v8.77h4.86v4.59h-4.86v12.77c0,2.05,0.11,3.31,0.34,3.79
				c0.23,0.48,0.79,0.72,1.7,0.72c0.96,0,1.9-0.18,2.83-0.54v4.7c-1.32,0.47-2.64,0.71-3.97,0.71c-1.58,0-2.85-0.35-3.83-1.05
				c-0.98-0.7-1.59-1.57-1.85-2.62c-0.25-1.05-0.38-2.86-0.38-5.43V22.45H254.76z"/>
		</g>
	</g>
	<g>
		<path class="st16" d="M63.82,8.92c0.02,0.03,0.06,0.06,0.09,0.1C63.89,8.97,63.87,8.93,63.82,8.92z"/>
		<path class="st16" d="M71.05,25.02c1.28-4.45-0.62-8.5-2.44-11.09c-0.66-0.94-1.44-1.73-2-2.64c-0.44-0.1-0.82-0.56-1.25-0.94
			c-0.54-0.49-1.17-1.03-1.46-1.33c0,0.01,0.01,0.03,0.01,0.04c-1.07-0.87-2.41-1.42-3.29-2.45c-0.55-0.64-0.6-1.55-1.33-2.09
			c0.15-0.3-0.12-1.34-0.61-1.57l-1.41-0.12c-2.26-0.31-4.27-0.28-5.98,0.3C45.52,1.84,40.5,2.93,35.29,3.5
			c-2.15,0.23-4.44,0.52-6.8,0.75c-2.09,0.2-4.89,0.2-6.63,0.9c-0.48,0.19-0.92,0.57-1.15,0.96l-0.12,0.8
			c0.12-0.04,0.34,0.39,0.62,0.47c0.31,0.1,0.68-0.08,1.02-0.04c0.93,0.13,1.47,0.75,1.81,1.41c0.81,0.34,1.13,0.82,1.71,1.2
			c-0.75-0.09-1.69-0.51-2.4-0.8c-0.03-0.37-0.43-0.35-0.66-0.67C21.9,8.47,20.8,8.26,20.6,8.86c-0.18,0.58,0.76,1.29,1.25,1.76
			c0.61,0.59,1.24,1.19,1.67,1.51c2.56,1.95,5.57,3.18,8.86,4.42c1.72,0.65,3.53,0.99,5.18,1.66c0.71,0.29,1.42,0.9,2.2,1.34
			c1.43,0.8,2.97,1.72,4.74,2.04c-0.53-0.63-1.46-1.26-1.59-2.01c3.64,0.5,6.85,1.13,10.22,1.72c0.95,1.64,1.86,3.31,3.57,4.39
			c0.2-0.2-0.12-0.41-0.14-0.72c-0.06-0.59,0.21-1.33,0.24-2.04c1.68,1.25,3.84,2.9,6.63,3.33c-0.65-1.2-1.04-3.27-2.34-4.14
			c1.42,0.06,2.96,0.56,4.19,1.07c0.22,0.22,0.02,0.76,0.3,0.93c0.42,0.1,0.52-0.24,0.96-0.11c0.12,0.55-0.06,1.66-0.53,1.88
			c-1.38-0.3-1.43-1.58-2.1-2.4c0.01,1.38-0.18,2.96,0.03,4.42c0.06,0.39,0.29,0.75,0.34,1.12c0.07,0.64-0.25,1.13-0.38,1.71
			c-0.64,2.7-1.57,5.74-0.99,8.24c0.04,0.01,0.08,0.01,0.12,0.02c0.82-1.57,1.47-3.15,2.15-4.66c0.64-1.41,1.55-3.22,2.52-4.16
			c0.25-0.25,0.65-0.42,0.92-0.68c0.3-0.28,0.54-0.64,0.83-0.89c0.48-0.41,1.17-0.61,1.34-1.38c0.42-0.18,0.8-0.4,1.27-0.5
			c0.01-0.06,0.02-0.12,0.03-0.19C71.83,25.98,71.31,25.6,71.05,25.02z"/>
	</g>
	<g>
		<path d="M6.77,37.2c0.22-0.04,0.42,0.11,0.46,0.32c0.04,0.22-0.11,0.42-0.32,0.46c-0.22,0.04-0.42-0.11-0.46-0.32
			C6.41,37.44,6.56,37.24,6.77,37.2z"/>
		<path d="M5.02,38.15c0.37,1.23,2.76,1.89,5.23,2.3c-0.14,0.33-0.33,0.94,0.17,1.16c0,0,0.13-0.59,0.44-1.07
			c0.64,0.09,1.27,0.17,1.86,0.24c1.36,0.15,3.12,0.06,4.98-0.16l0,0l0,0c0.07-0.01,0.13-0.02,0.2-0.02c0.17,0,0.42,0.03,0.58,0.24
			c0.27,0.34,1.15,1.4,1.93,1.37c0,0,0.73-1.23,0.35-1.73c-0.06-0.08-0.15-0.16-0.26-0.23c0.7-0.11,1.39-0.22,2.06-0.33
			c0.55,0.84,1.95,2.76,3.25,2.7c0,0-0.14-2.25,1.58-2.94c0.61-0.24,0.71-0.43,0.58-0.57c0.01,0,0.02,0,0.03,0
			c2.51-0.08,4.88,3.55,6.04,3.06c1.16-0.49-0.6-3.41-0.6-3.41c-0.89-0.8,3-2.16,1.64-3.2c-0.65-0.5-3.05,0.6-4.1,0.89
			c-1.05,0.29-2.81,0.17-2.81,0.17c-0.29-0.08-0.59-0.16-0.9-0.24c0.21-0.1,0.39-0.21,0.44-0.28c0.11-0.17-0.53-0.48-0.67-0.56
			c-0.1-0.06-1.35,0.19-2.03,0.34c-1.37-0.27-2.76-0.48-3.99-0.65c0.5-0.34,0.99-0.69,1.19-0.83c0.44-0.33-1.43-3.3-1.43-3.3
			c-3.47,1.28-3.14,2.96-3.54,3.32c-0.3,0.27-0.7,0.33-0.87,0.34c-0.03,0-0.06,0-0.09,0c0,0,0,0,0,0l0,0
			C2.99,35.35,5.02,38.15,5.02,38.15z M6.05,37.73c-0.08-0.45,0.22-0.88,0.67-0.96c0.45-0.08,0.88,0.22,0.96,0.67
			c0.08,0.45-0.22,0.88-0.67,0.96C6.56,38.48,6.13,38.18,6.05,37.73z"/>
	</g>
	<g>
		<path d="M42.65,26.69c-0.22-0.04-0.42,0.11-0.46,0.33s0.11,0.42,0.33,0.46c0.22,0.04,0.42-0.11,0.46-0.33
			C43.01,26.93,42.87,26.72,42.65,26.69z"/>
		<path d="M33.11,24.32L33.11,24.32C33.11,24.32,33.11,24.32,33.11,24.32c-0.03,0-0.06,0-0.09,0c-0.17-0.01-0.57-0.07-0.87-0.33
			c-0.4-0.35-0.09-2.04-3.56-3.29c0,0-1.84,2.99-1.4,3.31c0.2,0.14,0.7,0.48,1.2,0.82c-1.24,0.18-2.62,0.4-3.99,0.68
			c-0.68-0.14-1.93-0.38-2.03-0.32c-0.14,0.08-0.77,0.39-0.66,0.57c0.04,0.07,0.23,0.17,0.44,0.27c-0.3,0.08-0.6,0.16-0.9,0.25
			c0,0-1.76,0.13-2.81-0.15c-1.05-0.28-3.46-1.37-4.11-0.86c-1.34,1.05,2.55,2.37,1.67,3.18c0,0-1.73,2.94-0.57,3.41
			c1.16,0.48,3.51-3.17,6.01-3.11c0.01,0,0.02,0,0.03,0c-0.13,0.14-0.03,0.32,0.58,0.56c1.73,0.68,1.6,2.93,1.6,2.93
			c1.3,0.05,2.68-1.88,3.22-2.73c0.67,0.11,1.36,0.22,2.07,0.32c-0.1,0.07-0.19,0.15-0.26,0.23c-0.38,0.5,0.37,1.73,0.37,1.73
			c0.78,0.02,1.65-1.04,1.92-1.38c0.16-0.21,0.41-0.24,0.58-0.24c0.07,0.01,0.13,0.01,0.2,0.02l0,0l0,0
			c1.86,0.2,3.62,0.28,4.98,0.12c0.59-0.07,1.22-0.15,1.86-0.25c0.32,0.47,0.45,1.06,0.45,1.06c0.5-0.22,0.31-0.84,0.16-1.16
			c2.46-0.42,4.85-1.1,5.21-2.34C44.41,27.62,46.42,24.81,33.11,24.32z M42.43,27.89c-0.45-0.08-0.76-0.5-0.68-0.95
			s0.5-0.76,0.95-0.68c0.45,0.08,0.76,0.5,0.68,0.95C43.31,27.66,42.88,27.97,42.43,27.89z"/>
	</g>
</g>
</svg>
